# xmcd CD database file
#
# Track frame offsets:
#	150
#	42566
#	76690
#	103077
#	159285
#	187784
#	222734
#	247036
#	271059
#	302151
#	324292
#	343592
#
# Disc length: 4782 seconds
#
# Revision: 0
# Processed by: cddbd v1.5.2PL0 Copyright (c) Steve Scherf et al.
# Submitted via: CDex 1.70beta2
#
DISCID=9f12ac0c
DTITLE=Dexter Gordon - Doin' Allright and Dexter Calling
DYEAR=1961
DGENRE=Jazz
TTITLE0=I Was Doing All Right
TTITLE1=You've Changed
TTITLE2=For Regulars Only
TTITLE3=Society Red
TTITLE4=It's You or No One
TTITLE5=Soul Sister
TTITLE6=Modal Mood
TTITLE7=I Want More
TTITLE8=The End of a Love Affair
TTITLE9=Clear the Dex
TTITLE10=Ernie's Tune
TTITLE11=Smile
EXTD=YEAR: 1961
EXTT0=
EXTT1=
EXTT2=
EXTT3=
EXTT4=
EXTT5=
EXTT6=
EXTT7=
EXTT8=
EXTT9=
EXTT10=
EXTT11=
PLAYORDER=
